<svg width="44" height="42" viewBox="0 0 44 42" fill="none" xmlns="http://www.w3.org/2000/svg">
<path d="M19.6036 9C18.3927 9 17.5854 9.84636 17.5854 11.0152V21.983C17.5854 22.6032 17.0826 23.1061 16.4624 23.1061H14.6722C14.0519 23.1061 13.5491 22.6032 13.5491 21.983V14.661C13.5491 13.8741 12.7752 13.3675 12.1001 13.7718C9.62972 15.2509 4.83425 19.1436 4.48718 27.2085C4.46393 27.7489 4.07527 28.2243 3.60873 28.498C2.83857 28.9498 1.78806 29.9435 1.50989 32.0607C1.4291 32.6757 1.9428 33.1818 2.56306 33.1818H40.6287C41.2689 33.1818 41.7893 32.6446 41.6804 32.0139C41.325 29.9548 40.3387 28.9711 39.6137 28.515C39.1605 28.2299 38.7797 27.7554 38.7569 27.2204C38.4141 19.1475 33.6151 15.2516 31.1435 13.7718C30.4684 13.3675 29.6945 13.8741 29.6945 14.661V21.983C29.6945 22.6032 29.1917 23.1061 28.5715 23.1061H26.7812C26.161 23.1061 25.6582 22.6032 25.6582 21.983V11.0152C25.6582 9.84636 24.8913 9 23.64 9H19.6036Z" stroke="white" stroke-width="3"/>
</svg>
